<svg width="440" height="600" viewBox="0 0 440 600" fill="none" xmlns="http://www.w3.org/2000/svg">
<circle cx="140" cy="300" r="300" fill="#FFB187"/>
<g clip-path="url(#clip0_139_69675)">
<path d="M45.1471 310.052C45.0613 312.492 45 314.945 45 317.409C45 426.542 133.418 515 242.5 515C351.582 515 440 426.542 440 317.409C440 314.945 439.939 312.492 439.853 310.052H45.1471Z" fill="#F96818"/>
<path d="M242.5 348.444C351.576 348.444 440 332.436 440 312.688C440 292.941 351.576 276.932 242.5 276.932C133.424 276.932 45 292.941 45 312.688C45 332.436 133.424 348.444 242.5 348.444Z" fill="#FF8D55"/>
<path d="M342.598 325.833C378.136 325.833 406.944 318.768 406.944 310.052C406.944 301.336 378.136 294.271 342.598 294.271C307.061 294.271 278.252 301.336 278.252 310.052C278.252 318.768 307.061 325.833 342.598 325.833Z" fill="#FF6643"/>
<path d="M414.985 312.688C414.985 321.407 386.17 328.47 350.638 328.47C315.107 328.47 286.292 321.407 286.292 312.688C286.292 303.97 315.107 296.907 350.638 296.907C358.458 296.907 369.415 296.282 382.726 299.004C387.064 299.887 414.985 305.613 414.985 312.688Z" fill="#FFB297"/>
<path d="M305.118 170.154H267.442C257.877 170.154 250.124 177.911 250.124 187.48V303.81C250.124 313.38 257.877 321.137 267.442 321.137H305.118C314.683 321.137 322.436 313.38 322.436 303.81V187.48C322.436 177.911 314.683 170.154 305.118 170.154Z" fill="#F04120"/>
<path d="M124.274 310.579C121.174 313.657 113.182 321.627 102.286 321.615C91.415 321.615 83.4361 313.645 80.421 310.628C48.4195 278.686 71.2777 199.926 88.0813 169.774C92.6407 161.595 97.8864 154.961 103.99 155.035C110.302 155.121 115.487 162.331 119.899 170.951C135.403 201.251 156.411 278.6 124.287 310.579H124.274Z" fill="#F96818"/>
<path d="M93.2167 311.18C96.5627 315.95 99.9333 319.457 102.274 321.701C100.093 321.554 96.8446 321.137 93.2167 319.788C79.8695 314.859 73.5329 302.094 70.5301 296.049C46.7649 248.178 89.1231 165.581 93.7315 160.418C96.2686 157.573 99.3817 156.249 99.3817 156.249C101.269 155.452 102.948 155.207 103.978 155.121C90.7409 184.476 85.4216 210.153 83.0562 227.712C79.2444 255.964 75.6043 286.117 93.229 311.18H93.2167Z" fill="#EA5D26"/>
<path d="M204.505 308.875C199.676 313.681 187.187 326.115 170.175 326.103C153.187 326.091 140.747 313.657 136.028 308.961C86.0467 259.079 121.737 136.102 147.991 89.0159C155.099 76.2266 163.287 65.8774 172.822 66C182.664 66.1227 190.778 77.4038 197.654 90.843C221.86 138.162 254.671 258.931 204.505 308.862V308.875Z" fill="#F96818"/>
<path d="M156.019 309.807C161.252 317.25 166.498 322.719 170.175 326.226C166.768 326.005 161.706 325.343 156.019 323.246C135.183 315.558 125.292 295.619 120.598 286.178C83.4974 211.44 149.633 82.4558 156.84 74.3996C160.799 69.9607 165.652 67.9007 165.652 67.9007C168.594 66.65 171.229 66.2698 172.822 66.1349C152.158 111.983 143.848 152.067 140.147 179.485C134.202 223.604 128.515 270.678 156.019 309.819V309.807Z" fill="#EA5D26"/>
<path d="M224.765 271.635C220.304 277.692 215.83 283.75 211.369 289.795C209.996 291.647 209.199 293.866 209.052 296.171C208.734 301.407 208.415 306.655 208.096 311.891C207.778 317.127 210.977 322.056 215.965 323.847C226.248 327.55 236.531 331.265 246.802 334.968C249.842 336.06 253.09 336.477 256.313 336.17C276.107 334.294 295.901 332.418 315.683 330.542C321.824 329.965 326.506 324.803 326.493 318.635L326.469 304.375C326.469 299.188 323.111 294.602 318.171 293.02C291.452 284.473 264.721 275.914 238.002 267.368C233.124 265.81 227.805 267.527 224.765 271.647V271.635Z" fill="#FFD0C0"/>
<path d="M224.765 271.635C220.304 277.692 215.83 283.75 211.369 289.795C209.996 291.647 209.199 293.866 209.052 296.171C208.734 301.407 208.415 306.655 208.096 311.891C207.778 317.188 210.977 322.056 215.965 323.847C226.248 327.55 236.531 331.265 246.802 334.968C249.033 335.778 253.359 338.083 256.313 336.17C257.796 335.214 258.421 333.546 258.728 332.357C259.058 320.377 259.377 308.397 259.708 296.417C259.549 293.51 258.482 278.992 247.893 271.341C246.152 270.078 242.794 267.736 238.002 267.355C231.935 266.877 226.701 269.011 224.765 271.635Z" fill="#EFBDB4"/>
<path d="M210.18 295.399C217.889 286.57 225.598 277.741 233.308 268.913C237.181 264.474 230.709 257.938 226.812 262.414C219.102 271.242 211.393 280.071 203.684 288.9C199.811 293.339 206.282 299.874 210.18 295.399Z" fill="#EA5D26"/>
<path d="M231.714 260.121L292.347 260.501C293.695 260.501 294.982 261.016 295.987 261.911L328.479 291.266C332.119 294.553 329.925 300.61 325.023 300.806C304.419 301.616 283.804 302.437 263.201 303.246C260.358 303.357 257.624 302.216 255.712 300.107C246.361 289.832 236.997 279.556 227.645 269.293C224.434 265.761 226.959 260.096 231.727 260.121H231.714Z" fill="#EA5D26"/>
<path d="M145.944 313.878C146.373 325.134 136.237 332.651 135.196 333.411C126.187 333.362 117.191 333.313 108.182 333.264C106.05 332.062 98.8063 327.648 97.0291 319.665C94.4185 307.894 104.922 293.915 118.6 292.309C131.923 290.739 145.466 301.248 145.944 313.89V313.878Z" fill="#F04120"/>
<path d="M107.373 315.227C107.483 324.803 112.594 331.339 114.249 333.276C112.227 333.276 110.204 333.252 108.182 333.239C106.87 332.577 99.0876 328.445 97.0285 319.641C94.6508 309.427 101.968 301.407 104.333 299.126C109.738 293.891 116.087 292.64 118.6 292.284C117.301 293.314 107.214 301.591 107.373 315.227Z" fill="#DB4633"/>
<path d="M218.478 318.329C218.773 326.14 211.75 331.351 211.026 331.878C204.788 331.842 198.537 331.805 192.299 331.78C190.816 330.946 185.79 327.881 184.565 322.351C182.751 314.184 190.043 304.497 199.518 303.381C208.759 302.29 218.147 309.574 218.478 318.341V318.329Z" fill="#F04120"/>
<path d="M191.734 319.273C191.807 325.919 195.362 330.444 196.502 331.793C195.104 331.793 193.695 331.781 192.298 331.768C191.391 331.302 185.986 328.445 184.564 322.339C182.909 315.251 187.983 309.697 189.626 308.115C193.376 304.485 197.776 303.615 199.517 303.369C198.622 304.081 191.624 309.832 191.734 319.273Z" fill="#DB4633"/>
<path d="M346.116 325.122C346.41 332.933 339.387 338.144 338.664 338.672C332.426 338.635 326.175 338.598 319.937 338.573C318.454 337.74 313.428 334.674 312.203 329.144C310.389 320.977 317.681 311.29 327.156 310.175C336.397 309.083 345.785 316.367 346.116 325.134V325.122Z" fill="#F04120"/>
<path d="M319.36 326.067C319.434 332.713 322.988 337.237 324.128 338.586C322.731 338.586 321.321 338.574 319.924 338.562C319.017 338.096 313.612 335.239 312.19 329.132C310.535 322.045 315.61 316.49 317.252 314.908C321.002 311.279 325.402 310.408 327.143 310.163C326.248 310.874 319.25 316.625 319.36 326.067Z" fill="#DB4633"/>
<path d="M245.834 321.075C243.309 320.352 240.784 319.629 238.247 318.905C237.524 318.697 237.021 318.034 237.021 317.274V312.185C237.021 311.094 238.039 310.285 239.105 310.542C241.605 311.131 244.093 311.72 246.594 312.308C247.341 312.492 247.881 313.154 247.893 313.927L247.979 319.42C248.003 320.56 246.912 321.382 245.821 321.075H245.834Z" fill="#A53E0A"/>
</g>
<defs>
<clipPath id="clip0_139_69675">
<rect width="395" height="449" fill="white" transform="translate(45 66)"/>
</clipPath>
</defs>
</svg>
