<?xml version="1.0" encoding="UTF-8"?>
<svg id="Layer_2" data-name="Layer 2" xmlns="http://www.w3.org/2000/svg" viewBox="0 0 671.27 709.4">
  <defs>
    <style>
      .cls-1 {
        fill: #fff;
      }

      .cls-2 {
        fill: #5224ea;
      }
    </style>
  </defs>
  <g id="Background">
    <g>
      <circle class="cls-2" cx="340.88" cy="379.01" r="330.39"/>
      <path class="cls-1" d="M52.48,543.79c.25-3.37,1.41-12.37,8.45-19.15,9.39-9.04,25.4-10.44,39.43-2.82,.36-2.39,2.93-17.75,16.9-26.47,12.2-7.62,28.29-7.17,41.12,1.13,.46-1.42,4.12-12.21,15.21-16.33,9.35-3.48,20.22-.83,27.6,6.76,3.63-.96,8.51-2.74,13.52-6.2,10.54-7.28,14.89-17.35,16.47-21.69,2.32,4.79,7.19,16.59,3.93,30.46-.96,4.08-2.43,7.53-3.93,10.32,8.32,6.82,10.69,18.45,5.9,27.52-4.3,8.15-13.62,12.76-23.09,11.3-.1,1.92-1,14.74-11.3,22.11-10.51,7.52-26.5,6.28-38.05-3.97-.4,2.32-2.65,13.87-13.54,21.66-11.97,8.56-24.99,5.86-27.02,5.4-.56,16.51-13.99,29.92-30.46,30.46-16.52,.55-30.83-12.01-32.43-28.5-11.48,2.33-22.68-4.66-25.55-15.23-3.12-11.48,4.4-24.09,16.87-26.76Z"/>
      <path class="cls-1" d="M454.69,84.78c.25-3.37,1.41-12.37,8.45-19.15,9.39-9.04,25.4-10.44,39.43-2.82,.36-2.39,2.93-17.75,16.9-26.47,12.2-7.62,28.29-7.17,41.12,1.13,.46-1.42,4.12-12.21,15.21-16.33,9.35-3.48,20.22-.83,27.6,6.76,3.63-.96,8.51-2.74,13.52-6.2,10.54-7.28,14.89-17.35,16.47-21.69,2.32,4.79,7.19,16.59,3.93,30.46-.96,4.08-2.43,7.53-3.93,10.32,8.32,6.82,10.69,18.45,5.9,27.52-4.3,8.15-13.62,12.76-23.09,11.3-.1,1.92-1,14.74-11.3,22.11-10.51,7.52-26.5,6.28-38.05-3.97-.4,2.32-2.65,13.87-13.54,21.66-11.97,8.56-24.99,5.86-27.02,5.4-.56,16.51-13.99,29.92-30.46,30.46-16.52,.55-30.83-12.01-32.43-28.5-11.48,2.33-22.68-4.66-25.55-15.23-3.12-11.48,4.4-24.09,16.87-26.76Z"/>
      <path class="cls-1" d="M187.04,258.15c-.25,3.37-1.41,12.37-8.45,19.15-9.39,9.04-25.4,10.44-39.43,2.82-.36,2.39-2.93,17.75-16.9,26.47-12.2,7.62-28.29,7.17-41.12-1.13-.46,1.42-4.12,12.21-15.21,16.33-9.35,3.48-20.22,.83-27.6-6.76-3.63,.96-8.51,2.74-13.52,6.2-10.54,7.28-14.89,17.35-16.47,21.69-2.32-4.79-7.19-16.59-3.93-30.46,.96-4.08,2.43-7.53,3.93-10.32-8.32-6.82-10.69-18.45-5.9-27.52,4.3-8.15,13.62-12.76,23.09-11.3,.1-1.92,1-14.74,11.3-22.11,10.51-7.52,26.5-6.28,38.05,3.97,.4-2.32,2.65-13.87,13.54-21.66,11.97-8.56,24.99-5.86,27.02-5.4,.56-16.51,13.99-29.92,30.46-30.46,16.52-.55,30.83,12.01,32.43,28.5,11.48-2.33,22.68,4.66,25.55,15.23,3.12,11.48-4.4,24.09-16.87,26.76Z"/>
    </g>
  </g>
</svg>