<?xml version="1.0" encoding="UTF-8"?>
<svg id="Layer_2" data-name="Layer 2" xmlns="http://www.w3.org/2000/svg" viewBox="0 0 167.39 150.86">
  <defs>
    <style>
      .cls-1 {
        fill: #f4a00b;
      }

      .cls-2 {
        fill: #ffcb71;
      }

      .cls-3 {
        fill: #ffb118;
      }

      .cls-4 {
        fill: #e28e07;
      }

      .cls-5 {
        fill: #dd8300;
      }
    </style>
  </defs>
  <g id="Gallary">
    <g>
      <path class="cls-3" d="M0,67.16H167.39c0,45.91-37.78,83.69-83.69,83.69-45.91,0-83.69-37.78-83.69-83.69Z"/>
      <ellipse class="cls-2" cx="83.69" cy="67.16" rx="83.69" ry="15.14"/>
      <g>
        <path class="cls-1" d="M28.19,44.93c-2.58,1.12-3.24,3.89-3.33,4.31-.12,.5-.15,.92-.16,1.19-.41,5.85-.82,11.71-1.23,17.56,.58,.54,3.02,2.69,6.81,2.78,4,.09,6.62-2.19,7.17-2.69-.58-5.86-1.15-11.73-1.73-17.59-.01-.11-.03-.55-.16-1.11-.15-.65-.81-3.53-3.32-4.56-1.88-.77-3.67-.04-4.05,.12Z"/>
        <circle class="cls-3" cx="30.25" cy="41.38" r="4.34"/>
      </g>
      <g>
        <path class="cls-1" d="M117.55,67.9c-24.48-.2-48.95-.4-73.43-.6-.37,0-1.65-.18-2.51-1.14-.82-.92-.83-2.12-.85-2.48-.27-8.86,2.39-34.65,4.12-59.9,.12-1.77,1.58-3.14,3.35-3.16C71.73,.42,95.22,.21,118.71,0c1.91-.02,3.45,1.54,3.42,3.45-.39,20.37-.77,40.75-1.15,61.12-.04,1.86-1.56,3.34-3.42,3.33Z"/>
        <path class="cls-4" d="M119.82,67.03c-.81,.71-1.73,.82-2.06,.84-41.6-.28-71.98-.53-73.36-.58-.28,0-1.4,0-2.34-.74-.64-.51-.97-1.19-1.15-1.75,25.5,.25,51,.5,76.5,.74,.43-21.85,.85-43.71,1.28-65.56,.61,.04,1.57,.2,2.34,.91,.09,.08,.18,.17,.25,.26,0,0,.71,.82,.83,2.17,.12,1.31-.36,26.4-1.17,60.7,.02,.19,.14,1.87-1.14,3Z"/>
        <path class="cls-2" d="M111.79,60.12c-20.67-.17-41.35-.34-62.02-.51,1.18-17.13,2.36-34.27,3.54-51.4,19.82-.18,39.65-.35,59.47-.53-.33,17.48-.66,34.96-.99,52.43Z"/>
        <path class="cls-4" d="M51.11,5.66c21.31-.17,42.63-.34,63.94-.51-.76,.84-1.51,1.69-2.27,2.53-19.82,.18-39.65,.35-59.47,.53-1.18,17.13-2.36,34.27-3.54,51.4-.84,.57-1.69,1.14-2.53,1.71l3.87-55.66Z"/>
      </g>
      <g>
        <path class="cls-1" d="M89.51,75.04c12.56-.1,25.12-.2,37.68-.31,.19,0,.85-.09,1.29-.59,.42-.47,.43-1.09,.43-1.27,.14-4.55-1.22-17.78-2.12-30.74-.06-.91-.81-1.61-1.72-1.62-12.05-.11-24.11-.21-36.16-.32-.98,0-1.77,.79-1.75,1.77,.2,10.46,.4,20.91,.59,31.37,.02,.95,.8,1.71,1.75,1.71Z"/>
        <path class="cls-4" d="M88.35,74.6c.41,.37,.89,.42,1.06,.43,21.35-.14,36.94-.27,37.65-.3,.16,0,.73,0,1.2-.38,.47-.39,.62-1,.67-1.48-13.15,.1-26.3,.21-39.45,.31-.27-10.99-.55-21.98-.82-32.97-.32,.07-.74,.22-1.05,.58,0,0-.36,.42-.43,1.11-.06,.67,.19,13.55,.6,31.15,0,.1-.07,.96,.58,1.54Z"/>
        <path class="cls-2" d="M94.18,69.59c9.48-.08,18.95-.15,28.43-.23-.54-7.85-1.08-15.71-1.62-23.56-9.09-.08-18.17-.16-27.26-.24,.15,8.01,.3,16.02,.45,24.03Z"/>
        <path class="cls-4" d="M122.71,44.17c-10.2-.07-20.39-.13-30.59-.2,.53,.53,1.07,1.05,1.6,1.58,9.09,.08,18.17,.16,27.26,.24,.54,7.85,1.08,15.71,1.62,23.56,.66,.38,1.31,.76,1.97,1.14-.62-8.78-1.24-17.55-1.86-26.33Z"/>
      </g>
      <g>
        <path class="cls-1" d="M135.59,55.48c-2.13,.93-2.67,3.21-2.75,3.55-.1,.41-.12,.76-.13,.98-.34,4.82-.67,9.65-1.01,14.47,.48,.44,2.49,2.22,5.61,2.29,3.29,.07,5.46-1.8,5.91-2.21-.48-4.83-.95-9.67-1.43-14.5,0-.09-.03-.45-.13-.92-.12-.54-.67-2.91-2.73-3.76-1.55-.64-3.03-.04-3.33,.1Z"/>
        <circle class="cls-3" cx="137.28" cy="52.55" r="3.58"/>
      </g>
      <g>
        <path class="cls-4" d="M58.17,67.4c.09,2.44-2.1,4.06-2.33,4.22-1.95-.01-3.9-.02-5.84-.03-.46-.26-2.03-1.22-2.41-2.94-.57-2.55,1.71-5.57,4.67-5.92,2.88-.34,5.81,1.93,5.92,4.67Z"/>
        <path class="cls-5" d="M49.82,67.69c.02,2.07,1.13,3.48,1.49,3.91-.44,0-.88,0-1.31,0-.28-.14-1.97-1.04-2.41-2.94-.52-2.21,1.07-3.94,1.58-4.44,1.17-1.13,2.54-1.4,3.09-1.48-.28,.22-2.46,2.01-2.43,4.96Z"/>
      </g>
      <g>
        <path class="cls-4" d="M155.98,64.52c.08,2.04-1.76,3.4-1.95,3.54-1.63,0-3.26-.02-4.9-.03-.39-.22-1.7-1.02-2.02-2.47-.47-2.13,1.43-4.67,3.91-4.96,2.42-.28,4.87,1.62,4.96,3.91Z"/>
        <path class="cls-5" d="M148.99,64.77c.02,1.74,.95,2.92,1.25,3.27-.37,0-.73,0-1.1,0-.24-.12-1.65-.87-2.02-2.47-.43-1.85,.9-3.3,1.32-3.72,.98-.95,2.13-1.17,2.59-1.24-.23,.19-2.06,1.69-2.04,4.16Z"/>
      </g>
      <g>
        <path class="cls-4" d="M163.32,65.81c.09,2.44-2.1,4.06-2.33,4.22-1.95-.01-3.9-.02-5.84-.03-.46-.26-2.03-1.22-2.41-2.94-.57-2.55,1.71-5.57,4.67-5.92,2.88-.34,5.81,1.93,5.92,4.67Z"/>
        <path class="cls-5" d="M154.98,66.1c.02,2.07,1.13,3.48,1.49,3.91-.44,0-.88,0-1.31,0-.28-.14-1.97-1.04-2.41-2.94-.52-2.21,1.07-3.94,1.58-4.44,1.17-1.13,2.54-1.4,3.09-1.48-.28,.22-2.46,2.01-2.43,4.96Z"/>
      </g>
      <g>
        <path class="cls-4" d="M26.58,65.78c.08,2.13-1.84,3.55-2.04,3.7-1.7,0-3.41-.02-5.11-.03-.4-.23-1.78-1.06-2.11-2.57-.49-2.23,1.5-4.87,4.08-5.18,2.52-.3,5.09,1.69,5.18,4.08Z"/>
        <path class="cls-5" d="M19.28,66.03c.02,1.81,.99,3.05,1.3,3.42-.38,0-.77,0-1.15,0-.25-.13-1.72-.91-2.11-2.57-.45-1.93,.93-3.45,1.38-3.88,1.02-.99,2.23-1.23,2.7-1.29-.25,.19-2.16,1.76-2.13,4.34Z"/>
      </g>
    </g>
  </g>
</svg>