<?xml version="1.0" encoding="UTF-8"?>
<svg id="Layer_2" data-name="Layer 2" xmlns="http://www.w3.org/2000/svg" viewBox="0 0 170.56 164.74">
  <defs>
    <style>
      .cls-1 {
        fill: #f6e3ec;
      }

      .cls-2 {
        fill: #f478c8;
      }

      .cls-3 {
        fill: #f471bf;
      }

      .cls-4 {
        fill: #f7cbe4;
      }

      .cls-5 {
        fill: #ed96c6;
      }

      .cls-6 {
        fill: #f2b3d3;
      }

      .cls-7 {
        fill: #e25ab8;
      }
    </style>
  </defs>
  <g id="Liminal">
    <g>
      <path class="cls-6" d="M.06,76.28c-.04,1.05-.06,2.11-.06,3.18,0,47.1,38.18,85.28,85.28,85.28s85.28-38.18,85.28-85.28c0-1.06-.03-2.12-.06-3.18H.06Z"/>
      <ellipse class="cls-1" cx="85.28" cy="76.28" rx="85.28" ry="15.43"/>
      <g>
        <path class="cls-6" d="M59.56,73.03c-1.45,1.45-5.21,5.19-10.33,5.18-5.11,0-8.85-3.74-10.27-5.16-15.04-15-4.3-51.98,3.6-66.14C44.7,3.08,47.17-.04,50.03,0c2.96,.04,5.4,3.43,7.47,7.47,7.28,14.23,17.15,50.54,2.06,65.56Z"/>
        <path class="cls-5" d="M44.98,73.31c1.57,2.24,3.15,3.88,4.26,4.94-1.03-.07-2.55-.26-4.26-.9-6.27-2.31-9.25-8.31-10.66-11.15C23.16,43.74,43.06,4.95,45.22,2.53c1.19-1.33,2.65-1.96,2.65-1.96,.89-.38,1.68-.49,2.16-.53-6.22,13.79-8.72,25.84-9.83,34.08-1.79,13.27-3.5,27.42,4.78,39.19Z"/>
      </g>
      <g>
        <path class="cls-6" d="M162.56,77.57c-.84,.84-3.02,3-5.98,3-2.96,0-5.13-2.17-5.95-2.99-8.71-8.69-2.49-30.12,2.08-38.32,1.24-2.23,2.67-4.03,4.33-4.01,1.72,.02,3.13,1.99,4.33,4.33,4.22,8.24,9.94,29.28,1.19,37.98Z"/>
        <path class="cls-5" d="M154.11,77.74c.91,1.3,1.83,2.25,2.47,2.86-.59-.04-1.48-.15-2.47-.52-3.63-1.34-5.36-4.81-6.17-6.46-6.47-13.02,5.06-35.49,6.32-36.9,.69-.77,1.54-1.13,1.54-1.13,.51-.22,.97-.28,1.25-.31-3.6,7.99-5.05,14.97-5.7,19.75-1.04,7.69-2.03,15.89,2.77,22.71Z"/>
      </g>
      <g>
        <path class="cls-6" d="M67.7,74.08c-1.19,.09-4.25,.33-6.5-1.6-2.25-1.92-2.5-4.98-2.59-6.14-.98-12.26,17.66-24.52,26.46-27.79,2.39-.89,4.65-1.33,5.89-.24,1.29,1.13,1.09,3.54,.48,6.1-2.14,9.01-11.45,28.73-23.75,29.67Z"/>
        <path class="cls-5" d="M61.17,68.72c-.15,1.58-.07,2.9,.02,3.78-.43-.42-1.02-1.07-1.54-2-1.89-3.38-.95-7.14-.5-8.92,3.53-14.1,26.89-23.71,28.76-23.97,1.03-.14,1.9,.14,1.9,.14,.53,.17,.92,.41,1.15,.58-7.92,3.74-13.56,8.11-17.15,11.32-5.78,5.17-11.86,10.77-12.64,19.07Z"/>
      </g>
      <g>
        <path class="cls-2" d="M118.66,65.74c.04,.98-.84,1.63-.93,1.7-.78,0-1.56,0-2.35-.01-.19-.1-.82-.49-.97-1.18-.23-1.02,.69-2.24,1.87-2.38,1.16-.14,2.33,.78,2.38,1.87Z"/>
        <path class="cls-7" d="M115.31,65.86c0,.83,.45,1.4,.6,1.57-.18,0-.35,0-.53,0-.11-.06-.79-.42-.97-1.18-.21-.89,.43-1.58,.63-1.78,.47-.45,1.02-.56,1.24-.59-.11,.09-.99,.81-.98,1.99Z"/>
      </g>
      <g>
        <path class="cls-2" d="M115.74,67.76c.07,1.74-1.5,2.9-1.66,3.02-1.39,0-2.78-.02-4.17-.02-.33-.19-1.45-.87-1.72-2.1-.4-1.82,1.22-3.98,3.33-4.22,2.06-.24,4.15,1.38,4.22,3.33Z"/>
        <path class="cls-7" d="M109.78,67.97c.02,1.48,.81,2.49,1.06,2.79-.31,0-.62,0-.94,0-.2-.1-1.41-.74-1.72-2.1-.37-1.58,.76-2.82,1.13-3.17,.84-.81,1.82-1,2.2-1.06-.2,.16-1.76,1.44-1.74,3.54Z"/>
      </g>
      <path class="cls-7" d="M83.01,69.4l5.21-11.48c3.78,1.43,7.55,2.85,11.33,4.28,.5,1.85,1,3.71,1.5,5.56,2.09,2.91,4.19,5.81,6.28,8.72-1.11,.3-2.94,.7-5.22,.77-3.64,.1-6.39-.77-7.92-1.26-5.14-1.65-8.9-4.51-11.18-6.6Z"/>
      <path class="cls-5" d="M44.14,81.27c-.76-2.58,4.08-6.82,14.52-12.7,8.27-.1,16.54-.2,24.8-.3,2.82,2.12,5.65,4.23,8.47,6.35-4.03,2.62-8.07,5.24-12.1,7.86-22.74,2.79-34.63,2.39-35.69-1.21Z"/>
      <path class="cls-3" d="M158.37,78.52c-.43,2.57-6.11,4.5-17.06,5.77-6.81-3.02-13.63-6.05-20.44-9.07-1.45-2.94-2.9-5.87-4.35-8.81,4.37-.8,8.74-1.6,13.11-2.4,19.76,6.1,29.34,10.93,28.74,14.51Z"/>
      <g>
        <path class="cls-2" d="M44.36,74.44c.12,3.06-2.64,5.1-2.92,5.3-2.45-.01-4.89-.03-7.34-.04-.58-.33-2.55-1.53-3.03-3.7-.71-3.2,2.15-6.99,5.86-7.43,3.62-.43,7.3,2.43,7.43,5.86Z"/>
        <path class="cls-7" d="M33.88,74.81c.03,2.6,1.42,4.38,1.87,4.9-.55,0-1.1,0-1.65,0-.35-.18-2.47-1.3-3.03-3.7-.65-2.77,1.34-4.95,1.98-5.57,1.47-1.42,3.19-1.76,3.88-1.86-.35,.28-3.1,2.53-3.05,6.23Z"/>
      </g>
      <g>
        <path class="cls-2" d="M25.76,75.76c.09,2.44-2.1,4.06-2.33,4.22-1.95-.01-3.9-.02-5.84-.03-.46-.26-2.03-1.22-2.41-2.94-.57-2.55,1.71-5.57,4.67-5.92,2.88-.34,5.81,1.93,5.92,4.67Z"/>
        <path class="cls-7" d="M17.41,76.05c.02,2.07,1.13,3.48,1.49,3.91-.44,0-.88,0-1.31,0-.28-.14-1.97-1.04-2.41-2.94-.52-2.21,1.07-3.94,1.58-4.44,1.17-1.13,2.54-1.4,3.09-1.48-.28,.22-2.46,2.01-2.43,4.96Z"/>
      </g>
      <path class="cls-4" d="M112.02,76.65c.73-4.72,16.53-5.58,19.42-5.71,1.54,3.59,3.07,7.18,4.61,10.76-1.67,1.08-3.35,2.15-5.02,3.23-1.69,.47-5.56,1.28-9.95-.2-4.26-1.44-9.51-5.2-9.06-8.08Z"/>
      <path class="cls-2" d="M94.16,72.77c3.76,1.44,6.02,3.99,7.05,5.34,.28,2.78,.57,5.55,.85,8.33l-13.46,1.71c-2.92-4.7-5.84-9.4-8.76-14.1,.98-.55,7.32-3.96,14.31-1.28Z"/>
      <path class="cls-6" d="M118.82,86.8c-2.28,4.19-17.44-.33-20.21-1.18-.23-3.9-.47-7.79-.7-11.69,1.94-.45,3.88-.9,5.81-1.35,1.75,.13,5.66,.67,9.29,3.55,3.53,2.79,7.2,8.1,5.81,10.66Z"/>
    </g>
  </g>
</svg>