<?xml version="1.0" encoding="UTF-8"?>
<svg id="Layer_2" data-name="Layer 2" xmlns="http://www.w3.org/2000/svg" viewBox="0 0 322.28 366.17">
  <defs>
    <style>
      .cls-1 {
        fill: #f96818;
      }

      .cls-2 {
        fill: #ea5d26;
      }

      .cls-3 {
        fill: #f04120;
      }

      .cls-4 {
        fill: #efbdb4;
      }

      .cls-5 {
        fill: #ffb297;
      }

      .cls-6 {
        fill: #ffd0c0;
      }

      .cls-7 {
        fill: #ff6643;
      }

      .cls-8 {
        fill: #ff8d55;
      }

      .cls-9 {
        fill: #a53e0a;
      }

      .cls-10 {
        fill: #db4633;
      }
    </style>
  </defs>
  <g id="Projects">
    <g>
      <path class="cls-1" d="M.12,199.03c-.07,1.99-.12,3.99-.12,6,0,89,72.14,161.14,161.14,161.14s161.14-72.14,161.14-161.14c0-2.01-.05-4.01-.12-6H.12Z"/>
      <ellipse class="cls-8" cx="161.14" cy="201.18" rx="161.14" ry="29.16"/>
      <ellipse class="cls-7" cx="242.81" cy="199.03" rx="52.5" ry="12.87"/>
      <path class="cls-5" d="M301.87,201.18c0,7.11-23.51,12.87-52.5,12.87s-52.5-5.76-52.5-12.87,23.51-12.87,52.5-12.87c6.38,0,15.32-.51,26.18,1.71,3.54,.72,26.32,5.39,26.32,11.16Z"/>
      <rect class="cls-3" x="167.36" y="84.94" width="59" height="123.13" rx="14.13" ry="14.13"/>
      <g>
        <path class="cls-1" d="M64.68,199.46c-2.53,2.51-9.05,9.01-17.94,9-8.87,0-15.38-6.5-17.84-8.96-26.11-26.05-7.46-90.28,6.25-114.87,3.72-6.67,8-12.08,12.98-12.02,5.15,.07,9.38,5.95,12.98,12.98,12.65,24.71,29.79,87.79,3.58,113.87Z"/>
        <path class="cls-2" d="M39.34,199.95c2.73,3.89,5.48,6.75,7.39,8.58-1.78-.12-4.43-.46-7.39-1.56-10.89-4.02-16.06-14.43-18.51-19.36-19.39-39.04,15.17-106.4,18.93-110.61,2.07-2.32,4.61-3.4,4.61-3.4,1.54-.65,2.91-.85,3.75-.92-10.8,23.94-15.14,44.88-17.07,59.2-3.11,23.04-6.08,47.63,8.3,68.07Z"/>
      </g>
      <g>
        <path class="cls-1" d="M130.14,198.07c-3.94,3.92-14.13,14.06-28.01,14.05-13.86-.01-24.01-10.15-27.86-13.98-40.78-40.68-11.66-140.97,9.76-179.37C89.83,8.34,96.51-.1,104.29,0c8.03,.1,14.65,9.3,20.26,20.26,19.75,38.59,46.52,137.08,5.59,177.8Z"/>
        <path class="cls-2" d="M90.58,198.83c4.27,6.07,8.55,10.53,11.55,13.39-2.78-.18-6.91-.72-11.55-2.43-17-6.27-25.07-22.53-28.9-30.23C31.41,118.61,85.37,13.42,91.25,6.85c3.23-3.62,7.19-5.3,7.19-5.3,2.4-1.02,4.55-1.33,5.85-1.44-16.86,37.39-23.64,70.08-26.66,92.44-4.85,35.98-9.49,74.37,12.95,106.29Z"/>
      </g>
      <g>
        <path class="cls-6" d="M146.67,167.7c-3.64,4.94-7.29,9.88-10.93,14.81-1.12,1.51-1.77,3.32-1.89,5.2-.26,4.27-.52,8.55-.78,12.82s2.35,8.29,6.42,9.75c8.39,3.02,16.78,6.05,25.16,9.07,2.48,.89,5.13,1.23,7.76,.98,16.15-1.53,32.3-3.06,48.44-4.59,5.01-.47,8.83-4.68,8.82-9.71l-.02-11.63c0-4.23-2.74-7.97-6.77-9.26-21.8-6.97-43.61-13.95-65.41-20.92-3.98-1.27-8.32,.13-10.8,3.49Z"/>
        <path class="cls-4" d="M146.67,167.7c-3.64,4.94-7.29,9.88-10.93,14.81-1.12,1.51-1.77,3.32-1.89,5.2-.26,4.27-.52,8.55-.78,12.82-.26,4.32,2.35,8.29,6.42,9.75,8.39,3.02,16.78,6.05,25.16,9.07,1.82,.66,5.35,2.54,7.76,.98,1.21-.78,1.72-2.14,1.97-3.11,.27-9.77,.53-19.54,.8-29.31-.13-2.37-1-14.21-9.64-20.45-1.42-1.03-4.16-2.94-8.07-3.25-4.95-.39-9.22,1.35-10.8,3.49Z"/>
        <path class="cls-2" d="M134.77,187.08c6.29-7.2,12.58-14.4,18.87-21.6,3.16-3.62-2.12-8.95-5.3-5.3-6.29,7.2-12.58,14.4-18.87,21.6-3.16,3.62,2.12,8.95,5.3,5.3h0Z"/>
        <path class="cls-2" d="M152.34,158.31l49.47,.31c1.1,0,2.15,.42,2.97,1.15l26.51,23.94c2.97,2.68,1.18,7.62-2.82,7.78-16.81,.66-33.63,1.33-50.44,1.99-2.32,.09-4.55-.84-6.11-2.56-7.63-8.38-15.27-16.76-22.9-25.13-2.62-2.88-.56-7.5,3.33-7.48Z"/>
      </g>
      <g>
        <path class="cls-3" d="M82.36,202.15c.35,9.18-7.92,15.31-8.77,15.93-7.35-.04-14.69-.08-22.04-.12-1.74-.98-7.65-4.58-9.1-11.09-2.13-9.6,6.44-21,17.6-22.31,10.87-1.28,21.92,7.29,22.31,17.6Z"/>
        <path class="cls-10" d="M50.89,203.25c.09,7.81,4.26,13.14,5.61,14.72-1.65,0-3.3-.02-4.95-.03-1.07-.54-7.42-3.91-9.1-11.09-1.94-8.33,4.03-14.87,5.96-16.73,4.41-4.27,9.59-5.29,11.64-5.58-1.06,.84-9.29,7.59-9.16,18.71Z"/>
      </g>
      <g>
        <path class="cls-3" d="M141.54,205.78c.24,6.37-5.49,10.62-6.08,11.05-5.09-.03-10.19-.06-15.28-.08-1.21-.68-5.31-3.18-6.31-7.69-1.48-6.66,4.47-14.56,12.2-15.47,7.54-.89,15.2,5.05,15.47,12.2Z"/>
        <path class="cls-10" d="M119.72,206.55c.06,5.42,2.96,9.11,3.89,10.21-1.14,0-2.29-.01-3.43-.02-.74-.38-5.15-2.71-6.31-7.69-1.35-5.78,2.79-10.31,4.13-11.6,3.06-2.96,6.65-3.67,8.07-3.87-.73,.58-6.44,5.27-6.35,12.97Z"/>
      </g>
      <g>
        <path class="cls-3" d="M245.68,211.32c.24,6.37-5.49,10.62-6.08,11.05-5.09-.03-10.19-.06-15.28-.08-1.21-.68-5.31-3.18-6.31-7.69-1.48-6.66,4.47-14.56,12.2-15.47,7.54-.89,15.2,5.05,15.47,12.2Z"/>
        <path class="cls-10" d="M223.85,212.09c.06,5.42,2.96,9.11,3.89,10.21-1.14,0-2.29-.01-3.43-.02-.74-.38-5.15-2.71-6.31-7.69-1.35-5.78,2.79-10.31,4.13-11.6,3.06-2.96,6.65-3.67,8.07-3.87-.73,.58-6.44,5.27-6.35,12.97Z"/>
      </g>
      <path class="cls-9" d="M163.86,208.02c-2.06-.59-4.12-1.18-6.19-1.77-.59-.17-1-.71-1-1.33v-4.15c0-.89,.83-1.55,1.7-1.34,2.04,.48,4.07,.96,6.11,1.44,.61,.15,1.05,.69,1.06,1.32l.07,4.48c.02,.93-.87,1.6-1.76,1.35Z"/>
    </g>
  </g>
</svg>