<?xml version="1.0" encoding="UTF-8"?>
<svg id="Layer_2" data-name="Layer 2" xmlns="http://www.w3.org/2000/svg" viewBox="0 0 306.73 354.08">
  <defs>
    <style>
      .cls-1 {
        fill: #fff;
      }

      .cls-2 {
        fill: #ffede9;
      }

      .cls-3 {
        fill: #dcffdc;
      }

      .cls-4 {
        fill: #c2f2c2;
      }
    </style>
  </defs>
  <g id="Waterfall">
    <g>
      <path class="cls-1" d="M105.67,6.98c43.33,14.83,70.65,51.74,85.4,73.78,61.87,92.49,98.04,215.89,110.41,261.23-14.09,5.27-36.96,11.87-65.68,11.67-31.34-.21-55.85-8.4-70.18-14.43,3.95-32.12,6.38-78.05-2.22-131.83-3.05-19.07-31.64-188.87-104.29-197.95-17.64-2.2-33.08,5.7-42.07,11.42-.79-.56-1.59-1.13-2.38-1.69,6.24-4.97,16.35-11.74,30.13-15.78,26.63-7.81,49.54-.31,60.88,3.57Z"/>
      <path class="cls-1" d="M17.72,16.87c.02,2.45-1.57,4.17-2.03,4.64-3.04,.01-6.07,.02-9.11,.04-.46-.48-2-2.22-1.96-4.67,.05-3.15,2.71-6.55,6.55-6.55,3.84,0,6.52,3.39,6.55,6.55Z"/>
      <path class="cls-2" d="M23.9,21.03c.01,1.73-1.11,2.94-1.43,3.27-2.14,0-4.29,.02-6.43,.03-.32-.34-1.41-1.56-1.38-3.3,.04-2.22,1.91-4.62,4.62-4.62,2.71,0,4.6,2.39,4.62,4.62Z"/>
      <path class="cls-2" d="M9.24,21.03c.01,1.73-1.11,2.94-1.43,3.27-2.14,0-4.29,.02-6.43,.03C1.06,23.98-.03,22.76,0,21.03c.04-2.22,1.91-4.62,4.62-4.62,2.71,0,4.6,2.39,4.62,4.62Z"/>
      <path class="cls-3" d="M181.45,338.81c.03,4.23-2.71,7.2-3.51,8.01-5.25,.02-10.49,.04-15.74,.06-.79-.83-3.46-3.83-3.39-8.07,.09-5.44,4.68-11.31,11.31-11.31,6.63,0,11.27,5.85,11.31,11.31Z"/>
      <path class="cls-3" d="M306.73,342.96c.03,4.23-2.71,7.2-3.51,8.01-5.25,.02-10.49,.04-15.74,.06-.79-.83-3.46-3.83-3.39-8.07,.09-5.44,4.68-11.31,11.31-11.31,6.63,0,11.27,5.85,11.31,11.31Z"/>
      <path class="cls-4" d="M289.48,348.81c.02,2.76-1.77,4.7-2.29,5.23-3.42,.01-6.85,.03-10.27,.04-.52-.54-2.26-2.5-2.21-5.27,.06-3.55,3.05-7.38,7.38-7.38,4.32,0,7.36,3.82,7.38,7.38Z"/>
      <path class="cls-4" d="M187.64,346.18c.02,2.76-1.77,4.7-2.29,5.23-3.42,.01-6.85,.03-10.27,.04-.52-.54-2.26-2.5-2.21-5.27,.06-3.55,3.05-7.38,7.38-7.38,4.32,0,7.36,3.82,7.38,7.38Z"/>
      <path class="cls-4" d="M163.42,344.65c.02,2.76-1.77,4.7-2.29,5.23-3.42,.01-6.85,.03-10.27,.04-.52-.54-2.26-2.5-2.21-5.27,.06-3.55,3.05-7.38,7.38-7.38,4.32,0,7.36,3.82,7.38,7.38Z"/>
    </g>
  </g>
</svg>