<?xml version="1.0" encoding="UTF-8"?>
<svg id="Layer_2" data-name="Layer 2" xmlns="http://www.w3.org/2000/svg" viewBox="0 0 287.69 147.03">
  <defs>
    <style>
      .cls-1 {
        fill: #8fe58f;
      }

      .cls-2 {
        fill: #0ea10f;
      }

      .cls-3 {
        fill: #0f820f;
      }

      .cls-4 {
        fill: #53c353;
      }

      .cls-5 {
        fill: #3aaf3a;
      }
    </style>
  </defs>
  <g id="Crystal_s_World" data-name="Crystal&amp;apos;s World">
    <g>
      <path class="cls-2" d="M.11,24.91c-.07,1.46-.11,2.92-.11,4.38,0,65.02,64.4,117.74,143.85,117.74s143.85-52.71,143.85-117.74c0-1.47-.04-2.93-.11-4.38H.11Z"/>
      <ellipse class="cls-4" cx="143.85" cy="26.03" rx="143.85" ry="26.03"/>
      <path class="cls-5" d="M262.5,26.03c-.31,10.28-56.61,18.24-101.53,17.69-45.26-.55-101.48-10.01-101.53-20.31-.04-10.09,53.85-20.88,101.53-20.31,48.02,.57,101.83,12.82,101.53,22.92Z"/>
      <ellipse class="cls-1" cx="164.71" cy="26.03" rx="97.79" ry="17.69"/>
      <g>
        <path class="cls-2" d="M73.56,16.6c.29,7.54-6.5,12.57-7.2,13.07-6.03-.03-12.05-.07-18.08-.1-1.43-.81-6.28-3.76-7.47-9.1-1.75-7.88,5.29-17.23,14.44-18.31,8.92-1.05,17.98,5.98,18.31,14.44Z"/>
        <path class="cls-3" d="M47.74,17.51c.08,6.41,3.5,10.78,4.6,12.08-1.35,0-2.71-.01-4.06-.02-.87-.45-6.09-3.21-7.47-9.1-1.59-6.84,3.31-12.2,4.89-13.73,3.62-3.5,7.87-4.34,9.55-4.58-.87,.69-7.63,6.23-7.52,15.35Z"/>
      </g>
      <g>
        <path class="cls-2" d="M86.3,25.51c.23,6.12-5.28,10.21-5.85,10.62-4.9-.03-9.79-.05-14.69-.08-1.16-.65-5.1-3.05-6.06-7.39-1.42-6.4,4.29-13.99,11.73-14.87,7.25-.85,14.61,4.86,14.87,11.73Z"/>
        <path class="cls-3" d="M65.32,26.25c.06,5.21,2.84,8.76,3.74,9.81-1.1,0-2.2-.01-3.3-.02-.71-.36-4.95-2.61-6.06-7.39-1.29-5.55,2.69-9.91,3.97-11.15,2.94-2.84,6.39-3.52,7.76-3.72-.7,.56-6.19,5.06-6.11,12.47Z"/>
      </g>
    </g>
  </g>
</svg>