<svg width="440" height="600" viewBox="0 0 440 600" fill="none" xmlns="http://www.w3.org/2000/svg">
<circle cx="140" cy="300" r="300" fill="#FFD18D"/>
<g clip-path="url(#clip0_141_69711)">
<path d="M39 315.487H439C439 425.195 348.72 515.475 239.012 515.475C129.304 515.475 39.0239 425.195 39.0239 315.487H39Z" fill="#FFB118"/>
<path d="M238.988 351.666C349.438 351.666 438.976 335.469 438.976 315.488C438.976 295.506 349.438 279.309 238.988 279.309C128.538 279.309 39 295.506 39 315.488C39 335.469 128.538 351.666 238.988 351.666Z" fill="#FFCB71"/>
<path d="M106.364 262.366C100.198 265.042 98.6211 271.662 98.4061 272.665C98.1193 273.86 98.0476 274.864 98.0237 275.509C97.044 289.488 96.0642 303.492 95.0845 317.471C96.4705 318.761 102.301 323.899 111.358 324.114C120.916 324.329 127.177 318.881 128.491 317.686C127.106 303.683 125.743 289.656 124.357 275.652C124.334 275.39 124.286 274.338 123.975 273C123.617 271.447 122.039 264.565 116.042 262.103C111.549 260.263 107.272 262.008 106.364 262.39V262.366Z" fill="#F4A00B"/>
<path d="M111.286 264.254C117.014 264.254 121.657 259.611 121.657 253.883C121.657 248.155 117.014 243.512 111.286 243.512C105.558 243.512 100.915 248.155 100.915 253.883C100.915 259.611 105.558 264.254 111.286 264.254Z" fill="#FFB118"/>
<path d="M319.901 317.256C261.403 316.778 202.929 316.3 144.431 315.822C143.546 315.822 140.488 315.392 138.433 313.098C136.473 310.9 136.449 308.032 136.401 307.172C135.756 286 142.113 224.371 146.247 164.033C146.533 159.803 150.022 156.53 154.252 156.482C210.408 156.004 266.541 155.502 322.673 155C327.237 154.952 330.917 158.68 330.845 163.244C329.914 211.921 329.005 260.622 328.097 309.299C328.002 313.743 324.37 317.28 319.925 317.256H319.901Z" fill="#F4A00B"/>
<path d="M325.326 315.177C323.39 316.874 321.192 317.136 320.403 317.184C220.995 316.515 148.398 315.918 145.1 315.798C144.431 315.798 141.754 315.798 139.508 314.03C137.979 312.811 137.19 311.186 136.76 309.848C197.696 310.445 258.631 311.043 319.567 311.616C320.594 259.403 321.598 207.166 322.625 154.952C324.083 155.048 326.377 155.43 328.217 157.127C328.432 157.318 328.647 157.533 328.815 157.748C328.815 157.748 330.511 159.708 330.798 162.934C331.085 166.064 329.938 226.02 328.002 307.984C328.05 308.438 328.337 312.453 325.278 315.153L325.326 315.177Z" fill="#E28E07"/>
<path d="M306.137 298.665C256.743 298.258 207.326 297.852 157.932 297.446C160.752 256.511 163.572 215.553 166.391 174.619C213.754 174.189 261.14 173.782 308.503 173.352C307.714 215.123 306.926 256.894 306.137 298.641V298.665Z" fill="#FFCB71"/>
<path d="M161.134 168.525C212.057 168.119 263.004 167.713 313.927 167.307C312.111 169.314 310.318 171.345 308.502 173.352C261.14 173.783 213.753 174.189 166.391 174.619C163.571 215.553 160.752 256.511 157.932 297.446C155.924 298.808 153.893 300.17 151.886 301.532L161.134 168.525V168.525Z" fill="#E28E07"/>
<path d="M252.896 334.318C282.91 334.079 312.923 333.84 342.937 333.577C343.391 333.577 344.968 333.362 346.02 332.167C347.023 331.044 347.047 329.562 347.047 329.132C347.382 318.259 344.132 286.645 341.981 255.675C341.838 253.501 340.046 251.828 337.871 251.804C309.076 251.541 280.257 251.302 251.462 251.039C249.12 251.039 247.232 252.927 247.28 255.269C247.758 280.264 248.236 305.236 248.69 330.232C248.738 332.502 250.602 334.318 252.872 334.318H252.896Z" fill="#F4A00B"/>
<path d="M250.123 333.266C251.103 334.151 252.25 334.27 252.656 334.294C303.675 333.959 340.929 333.649 342.626 333.577C343.008 333.577 344.37 333.577 345.493 332.669C346.617 331.737 346.975 330.279 347.095 329.132C315.671 329.371 284.247 329.634 252.824 329.873C252.179 303.611 251.509 277.349 250.864 251.087C250.1 251.254 249.096 251.613 248.355 252.473C248.355 252.473 247.495 253.477 247.328 255.126C247.184 256.727 247.782 287.505 248.761 329.562C248.761 329.801 248.594 331.856 250.147 333.242L250.123 333.266Z" fill="#E28E07"/>
<path d="M264.055 321.294C286.709 321.103 309.339 320.936 331.992 320.745C330.702 301.986 329.412 283.203 328.121 264.445C306.4 264.254 284.702 264.063 262.98 263.871C263.338 283.012 263.697 302.153 264.055 321.294Z" fill="#FFCB71"/>
<path d="M332.232 260.55C307.857 260.383 283.507 260.239 259.133 260.072C260.399 261.338 261.69 262.581 262.956 263.848C284.678 264.039 306.376 264.23 328.098 264.421C329.388 283.18 330.678 301.962 331.969 320.721C333.546 321.629 335.099 322.537 336.676 323.445C335.195 302.464 333.713 281.507 332.232 260.526V260.55Z" fill="#E28E07"/>
<path d="M363.01 287.577C357.92 289.799 356.63 295.247 356.439 296.06C356.2 297.04 356.152 297.876 356.128 298.402C355.315 309.92 354.527 321.462 353.714 332.98C354.861 334.031 359.665 338.285 367.12 338.452C374.982 338.619 380.168 334.151 381.243 333.171C380.096 321.629 378.973 310.063 377.826 298.521C377.826 298.306 377.754 297.446 377.515 296.323C377.228 295.032 375.914 289.369 370.991 287.338C367.287 285.808 363.751 287.242 363.034 287.577H363.01Z" fill="#F4A00B"/>
<path d="M367.048 289.13C371.773 289.13 375.603 285.3 375.603 280.575C375.603 275.85 371.773 272.02 367.048 272.02C362.324 272.02 358.494 275.85 358.494 280.575C358.494 285.3 362.324 289.13 367.048 289.13Z" fill="#FFB118"/>
<path d="M178.004 316.061C178.219 321.892 172.986 325.763 172.437 326.145C167.777 326.121 163.117 326.097 158.481 326.074C157.382 325.452 153.63 323.158 152.722 319.048C151.36 312.955 156.808 305.738 163.882 304.901C170.764 304.089 177.765 309.513 178.028 316.061H178.004Z" fill="#E28E07"/>
<path d="M158.051 316.754C158.099 321.701 160.752 325.07 161.612 326.098C160.56 326.098 159.509 326.098 158.481 326.098C157.812 325.763 153.774 323.612 152.722 319.072C151.48 313.791 155.279 309.657 156.498 308.462C159.294 305.762 162.568 305.117 163.882 304.925C163.213 305.451 158.003 309.729 158.075 316.778L158.051 316.754Z" fill="#DD8300"/>
<path d="M411.735 309.179C411.926 314.054 407.529 317.304 407.075 317.638C403.18 317.638 399.285 317.59 395.366 317.567C394.434 317.041 391.303 315.129 390.539 311.664C389.416 306.574 393.956 300.505 399.882 299.812C405.665 299.143 411.52 303.683 411.735 309.155V309.179Z" fill="#E28E07"/>
<path d="M395.031 309.776C395.078 313.934 397.301 316.754 398.018 317.59C397.134 317.59 396.273 317.59 395.389 317.59C394.816 317.304 391.446 315.511 390.562 311.688C389.534 307.267 392.713 303.802 393.716 302.799C396.058 300.528 398.806 300.003 399.905 299.835C399.356 300.289 394.983 303.874 395.031 309.776Z" fill="#DD8300"/>
<path d="M429.275 312.262C429.49 318.092 424.257 321.963 423.707 322.346C419.048 322.322 414.388 322.298 409.752 322.274C408.653 321.653 404.901 319.359 403.993 315.249C402.631 309.155 408.079 301.938 415.153 301.102C422.035 300.289 429.036 305.714 429.299 312.262H429.275Z" fill="#E28E07"/>
<path d="M409.345 312.955C409.393 317.901 412.045 321.27 412.905 322.298C411.854 322.298 410.802 322.298 409.775 322.298C409.106 321.963 405.067 319.813 404.016 315.273C402.773 309.991 406.573 305.857 407.792 304.663C410.587 301.962 413.861 301.317 415.176 301.126C414.506 301.652 409.297 305.929 409.369 312.978L409.345 312.955Z" fill="#DD8300"/>
<path d="M102.516 312.19C102.707 317.28 98.1191 320.673 97.6412 321.031C93.5788 321.031 89.4926 320.984 85.4302 320.96C84.4744 320.41 81.1767 318.427 80.3881 314.818C79.2172 309.489 83.9725 303.181 90.1378 302.44C96.1596 301.723 102.301 306.479 102.516 312.19V312.19Z" fill="#E28E07"/>
<path d="M85.0719 312.787C85.1197 317.112 87.4376 320.075 88.1784 320.96C87.2704 320.96 86.3384 320.96 85.4303 320.96C84.8329 320.649 81.3202 318.785 80.3882 314.818C79.3129 310.206 82.6106 306.574 83.6859 305.546C86.1233 303.181 89.0148 302.607 90.1379 302.464C89.5405 302.918 84.9763 306.67 85.048 312.835L85.0719 312.787Z" fill="#DD8300"/>
</g>
<defs>
<clipPath id="clip0_141_69711">
<rect width="400" height="360.499" fill="white" transform="translate(39 155)"/>
</clipPath>
</defs>
</svg>
