<svg width="806" height="783" viewBox="0 0 806 783" fill="none" xmlns="http://www.w3.org/2000/svg">
<g clip-path="url(#clip0_30_110)">
<g clip-path="url(#clip1_30_110)">
<path d="M606 400C716.457 400 806 310.457 806 200C806 89.5431 716.457 0 606 0C495.543 0 406 89.5431 406 200C406 310.457 495.543 400 606 400Z" fill="#333333"/>
<path d="M805 583C805 692.72 714.72 783 605 783H31.28C28.7264 782.98 26.2354 782.208 24.1178 780.78C22.0002 779.353 20.3499 777.333 19.3729 774.974C18.3959 772.615 18.1354 770.02 18.6239 767.513C19.1125 765.007 20.3284 762.7 22.12 760.88L268.12 514.88C269.392 513.608 270.914 512.614 272.59 511.96L602.68 383.9C604.208 383.3 605.838 383.001 607.48 383.02C716.08 384.37 805 474.11 805 583Z" fill="#333333"/>
<path d="M369.5 594C496.249 594 599 491.249 599 364.5C599 237.751 496.249 135 369.5 135C242.751 135 140 237.751 140 364.5C140 491.249 242.751 594 369.5 594Z" fill="#333333"/>
<path d="M138.62 0H606.62C608.047 0 609.415 0.56682 610.424 1.57577C611.433 2.58471 612 3.95314 612 5.38V138.62C612 140.047 611.433 141.415 610.424 142.424C609.415 143.433 608.047 144 606.62 144H5.38C3.95314 144 2.58471 143.433 1.57577 142.424C0.56682 141.415 0 140.047 0 138.62H0C0 101.856 14.6046 66.5972 40.6009 40.6009C66.5972 14.6046 101.856 0 138.62 0V0Z" fill="#333333"/>
<path d="M427.5 504C509.514 504 576 437.514 576 355.5C576 273.486 509.514 207 427.5 207C345.486 207 279 273.486 279 355.5C279 437.514 345.486 504 427.5 504Z" fill="white"/>
<path d="M656.39 593.26C653.8 629.35 623.14 657 587 657H457.66C456.143 657 454.661 656.542 453.409 655.686C452.156 654.829 451.192 653.615 450.642 652.201C450.091 650.787 449.981 649.24 450.325 647.762C450.669 646.285 451.452 644.945 452.57 643.92L558.57 546.53C596.67 511.53 658.82 539.67 656.57 591.36C656.47 592 656.44 592.62 656.39 593.26Z" fill="white"/>
<path d="M660.47 185C658.8 161.8 639.09 144 615.83 144H532.71C531.734 144 530.781 144.294 529.976 144.845C529.171 145.396 528.551 146.177 528.197 147.086C527.844 147.995 527.773 148.99 527.995 149.94C528.217 150.89 528.72 151.751 529.44 152.41L597.57 215C622.06 237.51 662.02 219.42 660.57 186.19C660.52 185.79 660.5 185.38 660.47 185Z" fill="white"/>
</g>
</g>
<defs>
<clipPath id="clip0_30_110">
<rect width="806" height="783" fill="white"/>
</clipPath>
<clipPath id="clip1_30_110">
<rect width="806" height="783" fill="white"/>
</clipPath>
</defs>
</svg>
