<svg width="806" height="783" viewBox="0 0 806 783" fill="none" xmlns="http://www.w3.org/2000/svg">
<g clip-path="url(#clip0_30_110)">
<path fill-rule="evenodd" clip-rule="evenodd" d="M138.62 0H606H606.62C606.66 0 606.7 0.000447795 606.74 0.00134062C716.857 0.40029 806 89.7899 806 200C806 290.609 745.746 367.144 663.121 391.724C744.874 416.868 805 493.459 805 583C805 692.72 714.72 783 605 783H31.28C28.7264 782.98 26.2354 782.208 24.1178 780.78C22.0002 779.353 20.3499 777.333 19.3729 774.974C18.3959 772.615 18.1354 770.02 18.6239 767.513C19.1125 765.007 20.3284 762.7 22.12 760.88L233.568 549.432C176.821 507.65 140 440.375 140 364.5C140 259.909 209.965 171.659 305.646 144H5.38C3.95314 144 2.58471 143.433 1.57577 142.424C0.56682 141.415 0 140.047 0 138.62C0 101.856 14.6046 66.5972 40.6009 40.6009C66.5972 14.6046 101.856 0 138.62 0ZM576 355.5C576 437.514 509.514 504 427.5 504C345.486 504 279 437.514 279 355.5C279 273.486 345.486 207 427.5 207C509.514 207 576 273.486 576 355.5ZM656.39 593.26C653.8 629.35 623.14 657 587 657H457.66C456.143 657 454.661 656.542 453.409 655.686C452.156 654.829 451.192 653.615 450.642 652.201C450.091 650.787 449.981 649.24 450.325 647.762C450.669 646.285 451.452 644.945 452.57 643.92L558.57 546.53C596.67 511.53 658.82 539.67 656.57 591.36C656.491 591.862 656.456 592.353 656.42 592.85L656.42 592.853C656.41 592.988 656.401 593.124 656.39 593.26ZM615.83 144C639.09 144 658.8 161.8 660.47 185C660.478 185.108 660.486 185.218 660.494 185.329C660.514 185.611 660.534 185.903 660.57 186.19C662.02 219.42 622.06 237.51 597.57 215L529.44 152.41C528.72 151.751 528.217 150.89 527.995 149.94C527.773 148.99 527.844 147.995 528.197 147.086C528.551 146.177 529.171 145.396 529.976 144.845C530.781 144.294 531.734 144 532.71 144H615.83Z" fill="#333333"/>
</g>
<defs>
<clipPath id="clip0_30_110">
<rect width="806" height="783" fill="white"/>
</clipPath>
</defs>
</svg>
