<svg width="806" height="783" viewBox="0 0 806 783" fill="none" xmlns="http://www.w3.org/2000/svg">
<g clip-path="url(#clip0_169_18029)">
<path d="M663.08 391.72C745.72 367.15 806 290.62 806 200C806 89.78 716.84 0.39 606.71 0C606.68 0 606.65 0 606.62 0H138.62C62.06 0 0 62.06 0 138.62C0 141.59 2.41 144 5.38 144H305.68C209.98 171.65 140 259.9 140 364.5C140 440.38 176.83 507.64 233.58 549.42L22.12 760.88C13.96 769.04 19.74 783 31.28 783H605C714.72 783 805 692.72 805 583C805 493.45 744.85 416.85 663.08 391.72ZM279 355.5C279 273.49 345.49 207 427.5 207C509.51 207 576 273.49 576 355.5C576 437.51 509.51 504 427.5 504C345.49 504 279 437.51 279 355.5V355.5ZM656.5 591.36C656.47 591.99 656.44 592.62 656.39 593.25C653.8 629.34 623.14 656.99 586.96 656.99H457.67C450.81 656.99 447.52 648.56 452.57 643.91L558.55 546.52C596.65 511.51 658.8 539.66 656.5 591.35V591.36ZM597.57 215.01L529.44 152.4C526.19 149.41 528.3 143.99 532.72 143.99H615.84C639.1 143.99 658.81 161.77 660.48 184.97C660.51 185.38 660.53 185.78 660.55 186.19C662.03 219.42 622.07 237.52 597.58 215.01H597.57Z" fill="white"/>
</g>
<defs>
<clipPath id="clip0_169_18029">
<rect width="806" height="783" fill="white"/>
</clipPath>
</defs>
</svg>
